<?xml version="1.0" encoding="iso-8859-1"?>
<!-- Generator: Adobe Illustrator 21.1.0, SVG Export Plug-In . SVG Version: 6.00 Build 0)  -->
<svg version="1.1" id="Layer_1" xmlns="http://www.w3.org/2000/svg" xmlns:xlink="http://www.w3.org/1999/xlink" x="0px" y="0px"
	 viewBox="0 0 200 200" style="enable-background:new 0 0 200 200;" xml:space="preserve">
<style type="text/css">
	.st0{fill:#3F5F6B;}
	.st1{fill:#11A7ED;}
</style>
<g id="remove_x60_13x13">
	<path class="st0" d="M11.729,10.772c0.264,0.264,0.264,0.706,0,0.969c-0.132,0.131-0.299,0.204-0.502,0.204
		c-0.168,0-0.336-0.072-0.479-0.204L5.975,6.969l-4.797,4.773c-0.132,0.131-0.3,0.204-0.467,0.204c-0.216,0-0.371-0.072-0.515-0.204
		c-0.263-0.263-0.263-0.706,0-0.969L4.97,5.999L0.197,1.214c-0.263-0.263-0.263-0.742,0-1.017c0.275-0.263,0.706-0.263,0.981,0
		l4.797,4.821l4.773-4.821c0.274-0.263,0.705-0.263,0.98,0c0.264,0.275,0.264,0.754,0,1.017L6.944,5.999L11.729,10.772z"/>
</g>
<g id="add_x60_14x14">
	<path class="st1" d="M7.521,13.3c-0.001,0.163-0.057,0.301-0.169,0.414c-0.113,0.113-0.25,0.169-0.414,0.17
		c-0.163,0-0.304-0.06-0.424-0.18c-0.101-0.101-0.156-0.238-0.166-0.41V7.55L0.59,7.536c-0.163,0-0.297-0.053-0.403-0.159
		C0.12,7.31,0.073,7.242,0.048,7.172C0.021,7.102,0.005,7.027,0,6.946c0.001-0.164,0.057-0.302,0.17-0.414
		c0.113-0.113,0.25-0.169,0.414-0.169h5.743l0.007-5.75C6.333,0.535,6.349,0.46,6.38,0.385c0.031-0.074,0.076-0.14,0.133-0.198
		C6.571,0.13,6.637,0.086,6.712,0.054C6.786,0.023,6.864,0.005,6.946,0c0.163,0,0.303,0.057,0.418,0.173
		C7.479,0.288,7.536,0.427,7.536,0.59L7.521,6.377l5.772-0.029c0.163,0,0.303,0.057,0.418,0.172
		c0.115,0.115,0.172,0.255,0.173,0.418c-0.005,0.082-0.024,0.159-0.057,0.23c-0.035,0.072-0.079,0.137-0.137,0.195
		C13.632,7.42,13.567,7.466,13.495,7.5c-0.072,0.034-0.147,0.05-0.223,0.05H7.514L7.521,13.3z"/>
</g>
</svg>
